<?xml version="1.0" standalone="no"?>
<svg xmlns:xlink="http://www.w3.org/1999/xlink" id="wave" style="transform:rotate(0deg); transition: 0.3s" viewBox="0 0 1440 490" version="1.1" xmlns="http://www.w3.org/2000/svg"><defs><linearGradient id="sw-gradient-0" x1="0" x2="0" y1="1" y2="0"><stop stop-color="rgba(62, 126.506, 243, 1)" offset="0%"/><stop stop-color="rgba(108.027, 121.518, 196.124, 1)" offset="100%"/></linearGradient></defs><path style="transform:translate(0, 0px); opacity:1" fill="url(#sw-gradient-0)" d="M0,49L21.8,65.3C43.6,82,87,114,131,114.3C174.5,114,218,82,262,130.7C305.5,180,349,310,393,334.8C436.4,359,480,278,524,212.3C567.3,147,611,98,655,89.8C698.2,82,742,114,785,163.3C829.1,212,873,278,916,253.2C960,229,1004,114,1047,130.7C1090.9,147,1135,294,1178,294C1221.8,294,1265,147,1309,89.8C1352.7,33,1396,65,1440,106.2C1483.6,147,1527,196,1571,253.2C1614.5,310,1658,376,1702,408.3C1745.5,441,1789,441,1833,424.7C1876.4,408,1920,376,1964,302.2C2007.3,229,2051,114,2095,114.3C2138.2,114,2182,229,2225,277.7C2269.1,327,2313,310,2356,277.7C2400,245,2444,196,2487,155.2C2530.9,114,2575,82,2618,130.7C2661.8,180,2705,310,2749,302.2C2792.7,294,2836,147,2880,106.2C2923.6,65,2967,131,3011,187.8C3054.5,245,3098,294,3120,318.5L3141.8,343L3141.8,490L3120,490C3098.2,490,3055,490,3011,490C2967.3,490,2924,490,2880,490C2836.4,490,2793,490,2749,490C2705.5,490,2662,490,2618,490C2574.5,490,2531,490,2487,490C2443.6,490,2400,490,2356,490C2312.7,490,2269,490,2225,490C2181.8,490,2138,490,2095,490C2050.9,490,2007,490,1964,490C1920,490,1876,490,1833,490C1789.1,490,1745,490,1702,490C1658.2,490,1615,490,1571,490C1527.3,490,1484,490,1440,490C1396.4,490,1353,490,1309,490C1265.5,490,1222,490,1178,490C1134.5,490,1091,490,1047,490C1003.6,490,960,490,916,490C872.7,490,829,490,785,490C741.8,490,698,490,655,490C610.9,490,567,490,524,490C480,490,436,490,393,490C349.1,490,305,490,262,490C218.2,490,175,490,131,490C87.3,490,44,490,22,490L0,490Z"/><defs><linearGradient id="sw-gradient-1" x1="0" x2="0" y1="1" y2="0"><stop stop-color="rgba(71.197, 90.677, 198.401, 1)" offset="0%"/><stop stop-color="rgba(97.412, 130.604, 182.463, 1)" offset="100%"/></linearGradient></defs><path style="transform:translate(0, 50px); opacity:0.9" fill="url(#sw-gradient-1)" d="M0,49L21.8,89.8C43.6,131,87,212,131,269.5C174.5,327,218,359,262,318.5C305.5,278,349,163,393,163.3C436.4,163,480,278,524,334.8C567.3,392,611,392,655,367.5C698.2,343,742,294,785,228.7C829.1,163,873,82,916,65.3C960,49,1004,98,1047,130.7C1090.9,163,1135,180,1178,220.5C1221.8,261,1265,327,1309,318.5C1352.7,310,1396,229,1440,236.8C1483.6,245,1527,343,1571,351.2C1614.5,359,1658,278,1702,204.2C1745.5,131,1789,65,1833,32.7C1876.4,0,1920,0,1964,49C2007.3,98,2051,196,2095,269.5C2138.2,343,2182,392,2225,359.3C2269.1,327,2313,212,2356,147C2400,82,2444,65,2487,81.7C2530.9,98,2575,147,2618,204.2C2661.8,261,2705,327,2749,294C2792.7,261,2836,131,2880,114.3C2923.6,98,2967,196,3011,196C3054.5,196,3098,98,3120,49L3141.8,0L3141.8,490L3120,490C3098.2,490,3055,490,3011,490C2967.3,490,2924,490,2880,490C2836.4,490,2793,490,2749,490C2705.5,490,2662,490,2618,490C2574.5,490,2531,490,2487,490C2443.6,490,2400,490,2356,490C2312.7,490,2269,490,2225,490C2181.8,490,2138,490,2095,490C2050.9,490,2007,490,1964,490C1920,490,1876,490,1833,490C1789.1,490,1745,490,1702,490C1658.2,490,1615,490,1571,490C1527.3,490,1484,490,1440,490C1396.4,490,1353,490,1309,490C1265.5,490,1222,490,1178,490C1134.5,490,1091,490,1047,490C1003.6,490,960,490,916,490C872.7,490,829,490,785,490C741.8,490,698,490,655,490C610.9,490,567,490,524,490C480,490,436,490,393,490C349.1,490,305,490,262,490C218.2,490,175,490,131,490C87.3,490,44,490,22,490L0,490Z"/><defs><linearGradient id="sw-gradient-2" x1="0" x2="0" y1="1" y2="0"><stop stop-color="rgba(66.065, 64.52, 159.695, 1)" offset="0%"/><stop stop-color="rgba(89.171, 93.977, 182.463, 1)" offset="100%"/></linearGradient></defs><path style="transform:translate(0, 100px); opacity:0.8" fill="url(#sw-gradient-2)" d="M0,343L21.8,351.2C43.6,359,87,376,131,334.8C174.5,294,218,196,262,171.5C305.5,147,349,196,393,179.7C436.4,163,480,82,524,57.2C567.3,33,611,65,655,98C698.2,131,742,163,785,155.2C829.1,147,873,98,916,73.5C960,49,1004,49,1047,89.8C1090.9,131,1135,212,1178,204.2C1221.8,196,1265,98,1309,106.2C1352.7,114,1396,229,1440,277.7C1483.6,327,1527,310,1571,302.2C1614.5,294,1658,294,1702,277.7C1745.5,261,1789,229,1833,179.7C1876.4,131,1920,65,1964,32.7C2007.3,0,2051,0,2095,65.3C2138.2,131,2182,261,2225,310.3C2269.1,359,2313,327,2356,310.3C2400,294,2444,294,2487,310.3C2530.9,327,2575,359,2618,318.5C2661.8,278,2705,163,2749,171.5C2792.7,180,2836,310,2880,318.5C2923.6,327,2967,212,3011,171.5C3054.5,131,3098,163,3120,179.7L3141.8,196L3141.8,490L3120,490C3098.2,490,3055,490,3011,490C2967.3,490,2924,490,2880,490C2836.4,490,2793,490,2749,490C2705.5,490,2662,490,2618,490C2574.5,490,2531,490,2487,490C2443.6,490,2400,490,2356,490C2312.7,490,2269,490,2225,490C2181.8,490,2138,490,2095,490C2050.9,490,2007,490,1964,490C1920,490,1876,490,1833,490C1789.1,490,1745,490,1702,490C1658.2,490,1615,490,1571,490C1527.3,490,1484,490,1440,490C1396.4,490,1353,490,1309,490C1265.5,490,1222,490,1178,490C1134.5,490,1091,490,1047,490C1003.6,490,960,490,916,490C872.7,490,829,490,785,490C741.8,490,698,490,655,490C610.9,490,567,490,524,490C480,490,436,490,393,490C349.1,490,305,490,262,490C218.2,490,175,490,131,490C87.3,490,44,490,22,490L0,490Z"/></svg>